<mxfile host="app.diagrams.net" agent="Mozilla/5.0 (X11; Linux x86_64) AppleWebKit/537.36 (KHTML, like Gecko) Chrome/129.0.0.0 Safari/537.36" version="24.8.0">
  <diagram name="Pàgina-1" id="rgjBtcckNNjWf9LobObW">
    <mxGraphModel dx="1434" dy="754" grid="1" gridSize="10" guides="1" tooltips="1" connect="1" arrows="1" fold="1" page="1" pageScale="1" pageWidth="827" pageHeight="1169" math="0" shadow="0">
      <root>
        <mxCell id="0" />
        <mxCell id="1" parent="0" />
        <mxCell id="7qXbxLl61d79LgGDVsEv-8" value="" style="group;movable=1;resizable=1;rotatable=1;deletable=1;editable=1;locked=0;connectable=1;" vertex="1" connectable="0" parent="1">
          <mxGeometry x="70" y="310" width="530" height="140" as="geometry" />
        </mxCell>
        <mxCell id="7qXbxLl61d79LgGDVsEv-7" value="" style="rounded=1;whiteSpace=wrap;html=1;" vertex="1" parent="7qXbxLl61d79LgGDVsEv-8">
          <mxGeometry width="530" height="140" as="geometry" />
        </mxCell>
        <mxCell id="7qXbxLl61d79LgGDVsEv-1" value="&lt;b&gt;&lt;font style=&quot;font-size: 19px;&quot;&gt;Directori de treball&lt;/font&gt;&lt;/b&gt;&lt;div&gt;&lt;font style=&quot;font-size: 19px;&quot;&gt;Working directory&lt;/font&gt;&lt;/div&gt;" style="rounded=1;whiteSpace=wrap;html=1;fillColor=#f5f5f5;strokeColor=#666666;align=center;fontColor=#333333;" vertex="1" parent="7qXbxLl61d79LgGDVsEv-8">
          <mxGeometry x="8.157843137254902" y="10" width="126.94019607843138" height="120" as="geometry" />
        </mxCell>
        <mxCell id="7qXbxLl61d79LgGDVsEv-9" value="" style="group;movable=1;resizable=1;rotatable=1;deletable=1;editable=1;locked=0;connectable=1;" vertex="1" connectable="0" parent="1">
          <mxGeometry x="70" y="160" width="530" height="140" as="geometry" />
        </mxCell>
        <mxCell id="7qXbxLl61d79LgGDVsEv-6" value="" style="rounded=1;whiteSpace=wrap;html=1;" vertex="1" parent="7qXbxLl61d79LgGDVsEv-9">
          <mxGeometry width="530" height="140" as="geometry" />
        </mxCell>
        <mxCell id="7qXbxLl61d79LgGDVsEv-3" value="&lt;span style=&quot;font-size: 19px;&quot;&gt;&lt;b&gt;Àrea de preparació&lt;/b&gt;&lt;/span&gt;&lt;div&gt;&lt;span style=&quot;font-size: 19px;&quot;&gt;Staging area&lt;/span&gt;&lt;/div&gt;" style="rounded=1;whiteSpace=wrap;html=1;fillColor=#d5e8d4;strokeColor=#82b366;align=center;" vertex="1" parent="7qXbxLl61d79LgGDVsEv-9">
          <mxGeometry x="8.157843137254902" y="10" width="126.94019607843138" height="120" as="geometry" />
        </mxCell>
        <mxCell id="7qXbxLl61d79LgGDVsEv-10" value="" style="group;movable=1;resizable=1;rotatable=1;deletable=1;editable=1;locked=0;connectable=1;" vertex="1" connectable="0" parent="1">
          <mxGeometry x="70" y="10" width="530" height="140" as="geometry" />
        </mxCell>
        <mxCell id="7qXbxLl61d79LgGDVsEv-5" value="" style="rounded=1;whiteSpace=wrap;html=1;" vertex="1" parent="7qXbxLl61d79LgGDVsEv-10">
          <mxGeometry width="530" height="140" as="geometry" />
        </mxCell>
        <mxCell id="7qXbxLl61d79LgGDVsEv-4" value="&lt;span style=&quot;font-size: 19px;&quot;&gt;&lt;b&gt;Repositori local&lt;/b&gt;&lt;/span&gt;&lt;div&gt;&lt;span style=&quot;font-size: 19px;&quot;&gt;Local repository&lt;/span&gt;&lt;/div&gt;" style="rounded=1;whiteSpace=wrap;html=1;fillColor=#dae8fc;strokeColor=#6c8ebf;align=center;" vertex="1" parent="7qXbxLl61d79LgGDVsEv-10">
          <mxGeometry x="8.157843137254902" y="10" width="126.94019607843138" height="120" as="geometry" />
        </mxCell>
        <mxCell id="7qXbxLl61d79LgGDVsEv-15" value="&lt;font style=&quot;font-size: 15px;&quot;&gt;&lt;b&gt;git commit&lt;/b&gt;&lt;/font&gt;" style="shape=flexArrow;endArrow=classic;html=1;rounded=0;fillColor=#dae8fc;strokeColor=#6c8ebf;align=center;verticalAlign=middle;" edge="1" parent="7qXbxLl61d79LgGDVsEv-10">
          <mxGeometry x="-1" y="-10" width="50" height="50" relative="1" as="geometry">
            <mxPoint x="180" y="180" as="sourcePoint" />
            <mxPoint x="180" y="100" as="targetPoint" />
            <mxPoint x="-10" y="10" as="offset" />
          </mxGeometry>
        </mxCell>
        <mxCell id="7qXbxLl61d79LgGDVsEv-20" value="&lt;font style=&quot;font-size: 15px;&quot;&gt;&lt;b&gt;git reset&lt;/b&gt;&lt;/font&gt;&lt;div&gt;&lt;font style=&quot;font-size: 15px;&quot;&gt;&lt;b&gt;--soft&lt;/b&gt;&lt;/font&gt;&lt;/div&gt;" style="shape=flexArrow;endArrow=classic;html=1;rounded=0;fillColor=#d5e8d4;strokeColor=#82b366;align=center;verticalAlign=middle;" edge="1" parent="7qXbxLl61d79LgGDVsEv-10">
          <mxGeometry x="1" y="20" width="50" height="50" relative="1" as="geometry">
            <mxPoint x="330" y="100" as="sourcePoint" />
            <mxPoint x="330" y="180" as="targetPoint" />
            <mxPoint x="-20" y="20" as="offset" />
          </mxGeometry>
        </mxCell>
        <mxCell id="7qXbxLl61d79LgGDVsEv-12" value="Capa sense títol" parent="0" />
        <mxCell id="7qXbxLl61d79LgGDVsEv-24" value="" style="rounded=1;whiteSpace=wrap;html=1;" vertex="1" parent="7qXbxLl61d79LgGDVsEv-12">
          <mxGeometry x="70" y="460" width="530" height="140" as="geometry" />
        </mxCell>
        <mxCell id="7qXbxLl61d79LgGDVsEv-13" value="&lt;font style=&quot;font-size: 15px;&quot;&gt;&lt;b&gt;git add&lt;/b&gt;&lt;/font&gt;" style="shape=flexArrow;endArrow=classic;html=1;rounded=0;fillColor=#d5e8d4;strokeColor=#82b366;align=center;verticalAlign=middle;" edge="1" parent="7qXbxLl61d79LgGDVsEv-12">
          <mxGeometry x="-1" y="-10" width="50" height="50" relative="1" as="geometry">
            <mxPoint x="250" y="340" as="sourcePoint" />
            <mxPoint x="250" y="260" as="targetPoint" />
            <mxPoint x="-10" y="10" as="offset" />
          </mxGeometry>
        </mxCell>
        <mxCell id="7qXbxLl61d79LgGDVsEv-16" value="&lt;font style=&quot;font-size: 15px;&quot;&gt;&lt;b&gt;git restore&lt;/b&gt;&lt;/font&gt;&lt;div&gt;&lt;font style=&quot;font-size: 15px;&quot;&gt;&lt;b&gt;&amp;nbsp;--staged&lt;/b&gt;&lt;/font&gt;&lt;/div&gt;" style="shape=flexArrow;endArrow=classic;html=1;rounded=0;fillColor=#f5f5f5;strokeColor=#666666;align=center;verticalAlign=middle;" edge="1" parent="7qXbxLl61d79LgGDVsEv-12">
          <mxGeometry x="1" y="20" width="50" height="50" relative="1" as="geometry">
            <mxPoint x="330" y="260" as="sourcePoint" />
            <mxPoint x="330" y="340" as="targetPoint" />
            <mxPoint x="-20" y="20" as="offset" />
          </mxGeometry>
        </mxCell>
        <mxCell id="7qXbxLl61d79LgGDVsEv-17" value="&lt;font style=&quot;font-size: 15px;&quot;&gt;&lt;b&gt;git restore&lt;/b&gt;&lt;/font&gt;" style="shape=flexArrow;endArrow=classic;html=1;rounded=0;fillColor=#f8cecc;strokeColor=#b85450;align=center;verticalAlign=middle;" edge="1" parent="7qXbxLl61d79LgGDVsEv-12">
          <mxGeometry x="1" y="20" width="50" height="50" relative="1" as="geometry">
            <mxPoint x="330" y="410" as="sourcePoint" />
            <mxPoint x="330" y="510" as="targetPoint" />
            <mxPoint x="-20" y="20" as="offset" />
          </mxGeometry>
        </mxCell>
        <mxCell id="7qXbxLl61d79LgGDVsEv-19" value="" style="shape=image;verticalLabelPosition=bottom;labelBackgroundColor=default;verticalAlign=top;aspect=fixed;imageAspect=0;image=https://static.thenounproject.com/png/1064108-200.png;" vertex="1" parent="7qXbxLl61d79LgGDVsEv-12">
          <mxGeometry x="80" y="475" width="110" height="110" as="geometry" />
        </mxCell>
        <mxCell id="7qXbxLl61d79LgGDVsEv-21" value="&lt;font style=&quot;font-size: 15px;&quot;&gt;&lt;b&gt;git reset&lt;/b&gt;&lt;/font&gt;&lt;div&gt;&lt;font style=&quot;font-size: 15px;&quot;&gt;&lt;b&gt;--mixed&lt;/b&gt;&lt;/font&gt;&lt;/div&gt;" style="shape=flexArrow;endArrow=classic;html=1;rounded=0;fillColor=#f5f5f5;strokeColor=#666666;align=center;verticalAlign=middle;" edge="1" parent="7qXbxLl61d79LgGDVsEv-12">
          <mxGeometry x="1" y="20" width="50" height="50" relative="1" as="geometry">
            <mxPoint x="470" y="110" as="sourcePoint" />
            <mxPoint x="470" y="340" as="targetPoint" />
            <mxPoint x="-20" y="20" as="offset" />
          </mxGeometry>
        </mxCell>
        <mxCell id="7qXbxLl61d79LgGDVsEv-22" value="&lt;font style=&quot;font-size: 15px;&quot;&gt;&lt;b&gt;git reset&lt;/b&gt;&lt;/font&gt;&lt;div&gt;&lt;font style=&quot;font-size: 15px;&quot;&gt;&lt;b&gt;--hard&lt;/b&gt;&lt;/font&gt;&lt;/div&gt;" style="shape=flexArrow;endArrow=classic;html=1;rounded=0;fillColor=#f8cecc;strokeColor=#b85450;align=center;verticalAlign=middle;" edge="1" parent="7qXbxLl61d79LgGDVsEv-12">
          <mxGeometry x="1" y="20" width="50" height="50" relative="1" as="geometry">
            <mxPoint x="540" y="110" as="sourcePoint" />
            <mxPoint x="540" y="510" as="targetPoint" />
            <mxPoint x="-20" y="20" as="offset" />
          </mxGeometry>
        </mxCell>
      </root>
    </mxGraphModel>
  </diagram>
</mxfile>
